<?xml version="1.0" encoding="UTF-8" standalone="no"?>
<!DOCTYPE svg PUBLIC "-//W3C//DTD SVG 1.1//EN" "http://www.w3.org/Graphics/SVG/1.1/DTD/svg11.dtd">
<svg width="100%" height="100%" viewBox="0 0 1024 332" version="1.1" xmlns="http://www.w3.org/2000/svg" xmlns:xlink="http://www.w3.org/1999/xlink" xml:space="preserve" xmlns:serif="http://www.serif.com/" style="fill-rule:evenodd;clip-rule:evenodd;stroke-linejoin:round;stroke-miterlimit:2;">
    <g transform="matrix(24.4855,0,0,24.4855,-4689.8,-4678.34)">
        <path d="M198.23,200.545C198.23,201.049 198.076,201.425 197.768,201.673C197.46,201.921 197.014,202.045 196.43,202.045L194.642,202.045L194.642,201.145L196.55,201.145C196.766,201.145 196.93,201.099 197.042,201.007C197.154,200.915 197.21,200.781 197.21,200.605L197.21,199.969C197.21,199.609 197.038,199.429 196.694,199.429L196.25,199.429C195.69,199.429 195.272,199.307 194.996,199.063C194.72,198.819 194.582,198.433 194.582,197.905L194.582,197.557C194.582,197.021 194.734,196.635 195.038,196.399C195.342,196.163 195.79,196.045 196.382,196.045L197.99,196.045L197.99,196.945L196.262,196.945C196.062,196.945 195.902,196.991 195.782,197.083C195.662,197.175 195.602,197.309 195.602,197.485L195.602,197.917C195.602,198.101 195.656,198.237 195.764,198.325C195.872,198.413 196.01,198.457 196.178,198.457L196.586,198.457C197.122,198.457 197.53,198.587 197.81,198.847C198.09,199.107 198.23,199.493 198.23,200.005L198.23,200.545Z" style="fill:white;fill-rule:nonzero;"/>
        <path d="M202.07,202.045C201.798,202.045 201.56,201.949 201.356,201.757C201.152,201.565 201.05,201.261 201.05,200.845L201.05,194.545L199.286,194.545L199.286,193.645L202.07,193.645L202.07,200.785C202.07,200.913 202.102,201.005 202.166,201.061C202.23,201.117 202.338,201.145 202.49,201.145L204.086,201.145L204.086,202.045L202.07,202.045Z" style="fill:white;fill-rule:nonzero;"/>
        <path d="M209.198,200.125C209.198,200.797 209.032,201.285 208.7,201.589C208.368,201.893 207.854,202.045 207.158,202.045L206.762,202.045C206.066,202.045 205.552,201.893 205.22,201.589C204.888,201.285 204.722,200.797 204.722,200.125L204.722,197.965C204.722,197.293 204.888,196.805 205.22,196.501C205.552,196.197 206.066,196.045 206.762,196.045L207.158,196.045C207.854,196.045 208.368,196.197 208.7,196.501C209.032,196.805 209.198,197.293 209.198,197.965L209.198,200.125ZM208.178,197.725C208.178,197.477 208.102,197.285 207.95,197.149C207.798,197.013 207.574,196.945 207.278,196.945L206.642,196.945C206.346,196.945 206.122,197.013 205.97,197.149C205.818,197.285 205.742,197.477 205.742,197.725L205.742,200.365C205.742,200.613 205.818,200.805 205.97,200.941C206.122,201.077 206.346,201.145 206.642,201.145L207.278,201.145C207.574,201.145 207.798,201.077 207.95,200.941C208.102,200.805 208.178,200.613 208.178,200.365L208.178,197.725Z" style="fill:white;fill-rule:nonzero;"/>
        <path d="M212.69,202.045C212.282,202.045 211.97,201.913 211.754,201.649C211.538,201.385 211.43,201.037 211.43,200.605L211.43,196.945L210.29,196.945L210.29,196.045L211.43,196.045L211.43,194.605L212.45,194.605L212.45,196.045L214.202,196.045L214.202,196.945L212.45,196.945L212.45,200.665C212.45,200.841 212.494,200.965 212.582,201.037C212.67,201.109 212.806,201.145 212.99,201.145L214.202,201.145L214.202,202.045L212.69,202.045Z" style="fill:rgb(204,103,102);fill-rule:nonzero;"/>
        <path d="M217.97,202.045C217.562,202.045 217.25,201.913 217.034,201.649C216.818,201.385 216.71,201.037 216.71,200.605L216.71,196.945L215.57,196.945L215.57,196.045L216.71,196.045L216.71,194.605L217.73,194.605L217.73,196.045L219.482,196.045L219.482,196.945L217.73,196.945L217.73,200.665C217.73,200.841 217.774,200.965 217.862,201.037C217.95,201.109 218.086,201.145 218.27,201.145L219.482,201.145L219.482,202.045L217.97,202.045Z" style="fill:rgb(204,103,102);fill-rule:nonzero;"/>
        <path d="M222.734,202.045C222.03,202.045 221.514,201.895 221.186,201.595C220.858,201.295 220.694,200.805 220.694,200.125L220.694,197.965C220.694,197.277 220.842,196.785 221.138,196.489C221.434,196.193 221.926,196.045 222.614,196.045L223.178,196.045C223.746,196.045 224.176,196.203 224.468,196.519C224.76,196.835 224.906,197.297 224.906,197.905L224.906,199.465L221.714,199.465L221.714,200.365C221.714,200.613 221.79,200.805 221.942,200.941C222.094,201.077 222.318,201.145 222.614,201.145L224.522,201.145L224.522,202.045L222.734,202.045ZM223.91,197.665C223.91,197.457 223.842,197.285 223.706,197.149C223.57,197.013 223.398,196.945 223.19,196.945L222.494,196.945C222.206,196.945 222.004,197.011 221.888,197.143C221.772,197.275 221.714,197.469 221.714,197.725L221.714,198.565L223.91,198.565L223.91,197.665Z" style="fill:white;fill-rule:nonzero;"/>
        <path d="M229.346,201.769C229.082,201.953 228.762,202.045 228.386,202.045L227.894,202.045C227.19,202.045 226.674,201.895 226.346,201.595C226.018,201.295 225.854,200.805 225.854,200.125L225.854,197.965C225.854,197.293 226.02,196.805 226.352,196.501C226.684,196.197 227.198,196.045 227.894,196.045L229.286,196.045L229.286,193.645L230.306,193.645L230.306,202.045L229.346,202.045L229.346,201.769ZM228.506,201.145C228.77,201.145 228.966,201.075 229.094,200.935C229.222,200.795 229.286,200.645 229.286,200.485L229.286,196.945L227.774,196.945C227.478,196.945 227.254,197.013 227.102,197.149C226.95,197.285 226.874,197.477 226.874,197.725L226.874,200.365C226.874,200.613 226.95,200.805 227.102,200.941C227.254,201.077 227.478,201.145 227.774,201.145L228.506,201.145Z" style="fill:white;fill-rule:nonzero;"/>
    </g>
    <g transform="matrix(1,0,0,1.00075,0,-34.0255)">
        <path d="M1024,100.474C1024,63.854 994.247,34.124 957.6,34.124L66.4,34.124C29.753,34.124 0,63.854 0,100.474L0,365.876L957.6,365.876C994.247,365.876 1024,336.146 1024,299.526L1024,100.474ZM1006,100.474L1006,299.526C1006,326.218 984.313,347.89 957.6,347.89L18,347.89C18,347.89 18,100.474 18,100.474C18,73.782 39.687,52.11 66.4,52.11L957.6,52.11C984.313,52.11 1006,73.782 1006,100.474Z" style="fill:rgb(204,103,102);"/>
    </g>
</svg>
